<svg xmlns="http://www.w3.org/2000/svg" xmlns:xlink="http://www.w3.org/1999/xlink" viewBox="0 0 242.534 37.598">
  <defs>
    <clipPath id="clip-path">
      <rect id="Rectangle_1360" data-name="Rectangle 1360" width="40.034" height="13.486" transform="translate(0 0)" fill="none"/>
    </clipPath>
  </defs>
  <g id="Group_1276" data-name="Group 1276" transform="translate(-109.5 -89)">
    <g id="Group_1275" data-name="Group 1275" transform="translate(-1126.024 58.115)">
      <path id="Path_1548" data-name="Path 1548" d="M1245.717,31.458h-10.192V68.119h21.581v-7.8h-11.389Z" fill="#3ff"/>
      <path id="Path_1549" data-name="Path 1549" d="M1261.057,68.119h23.452V59.955h-13.26v-6.6h11.7V45.6h-11.7v-5.98h13.26V31.458h-23.452Z" fill="#3ff"/>
      <path id="Path_1550" data-name="Path 1550" d="M1306.089,57.926l-8.32-26.469h-10.921l12.688,36.661h13.053l12.637-36.661h-10.869Z" fill="#3ff"/>
      <path id="Path_1551" data-name="Path 1551" d="M1378.314,31.458h-10.192V68.119H1389.7v-7.8h-11.389Z" fill="#3ff"/>
      <path id="Path_1552" data-name="Path 1552" d="M1403.535,41.545a2.43,2.43,0,0,1,2.7-2.6,3.146,3.146,0,0,1,3.38,3.328h11.076c-.364-7.28-5.876-11.389-14.3-11.389-7.749,0-13.729,3.849-13.729,11.025-.155,12.74,17.629,9.984,17.681,15.86,0,1.716-1.4,2.652-3.224,2.652-1.872,0-3.484-.936-3.692-3.692h-10.868c.416,7.853,6.759,11.753,14.924,11.753,8.684,0,13.676-5.044,13.676-11.493C1421.163,45.238,1403.535,47.005,1403.535,41.545Z" fill="#3ff"/>
      <rect id="Rectangle_1355" data-name="Rectangle 1355" width="32" height="8" transform="translate(1329.984 31.118)" fill="#3ff"/>
      <path id="Path_1553" data-name="Path 1553" d="M1329.984,68.118h32l-16-10Z" fill="#3ff"/>
      <rect id="Rectangle_1356" data-name="Rectangle 1356" width="32" height="8" transform="translate(1329.984 46.118)" fill="#3ff"/>
    </g>
    <g id="Group_1278" data-name="Group 1278" transform="translate(312 114)">
      <g id="Group_1277" data-name="Group 1277" transform="translate(0 -13)" clip-path="url(#clip-path)">
        <path id="Path_1554" data-name="Path 1554" d="M5.815,3.187c2.557,0,4.556,2,4.556,5.113s-2,5.186-4.556,5.186A3.929,3.929,0,0,1,2.52,11.9v1.423H0V0H2.52V4.807a3.888,3.888,0,0,1,3.3-1.62M5.149,5.4A2.693,2.693,0,0,0,2.52,8.337a2.692,2.692,0,0,0,2.629,2.934A2.728,2.728,0,0,0,7.8,8.3,2.663,2.663,0,0,0,5.149,5.4" fill="#3ff"/>
        <path id="Path_1555" data-name="Path 1555" d="M16.562,13.486a4.831,4.831,0,0,1-5.006-5.149,4.793,4.793,0,0,1,5.006-5.15,4.682,4.682,0,0,1,4.915,4.934,5.886,5.886,0,0,1-.072.971H14.112a2.334,2.334,0,0,0,2.4,2.305,2.055,2.055,0,0,0,2-1.206h2.719a4.637,4.637,0,0,1-4.663,3.3M14.131,7.4h4.735a2.217,2.217,0,0,0-2.377-2.143A2.317,2.317,0,0,0,14.131,7.4" fill="#3ff"/>
        <path id="Path_1556" data-name="Path 1556" d="M23.706,5.42H22.518V3.35h1.188V.883h2.538V3.35h2.233V5.42H26.244v4.825c0,.666.271.954,1.063.954h1.17v2.125H26.893c-1.909,0-3.187-.81-3.187-3.1Z" fill="#3ff"/>
        <path id="Path_1557" data-name="Path 1557" d="M34.2,3.187a3.942,3.942,0,0,1,3.294,1.584V3.349h2.54v9.975h-2.54V11.866a3.931,3.931,0,0,1-3.312,1.62c-2.521,0-4.537-2.07-4.537-5.186S31.662,3.187,34.2,3.187M34.849,5.4A2.66,2.66,0,0,0,32.22,8.3a2.726,2.726,0,0,0,2.629,2.971,2.684,2.684,0,0,0,2.646-2.934A2.685,2.685,0,0,0,34.849,5.4" fill="#3ff"/>
      </g>
    </g>
  </g>
</svg>
